<svg width="10" height="8" viewBox="0 0 10 8" fill="none" xmlns="http://www.w3.org/2000/svg">
<path d="M8.40781 3.2499H3.39219L5.3375 1.38896C5.61641 1.096 5.61641 0.622559 5.3375 0.32959C5.05859 0.0366211 4.60625 0.0366211 4.325 0.32959L1.08594 3.47021C0.945312 3.60615 0.875 3.79131 0.875 3.99521V4.00459C0.875 4.2085 0.945312 4.39365 1.08594 4.52959L4.32266 7.67022C4.60391 7.96318 5.05625 7.96318 5.33516 7.67022C5.61406 7.37725 5.61406 6.90381 5.33516 6.61084L3.38984 4.7499H8.40547C8.80156 4.7499 9.12266 4.41475 9.12266 3.9999C9.125 3.57803 8.80391 3.2499 8.40781 3.2499Z" fill="black"/>
</svg>
