<svg width="12" height="12" viewBox="0 0 12 12" fill="none" xmlns="http://www.w3.org/2000/svg">
<g clip-path="url(#clip0_937_16)">
<path d="M6 3.5C4.62 3.5 3.5 4.62 3.5 6C3.5 7.38 4.62 8.5 6 8.5C7.38 8.5 8.5 7.38 8.5 6C8.5 4.62 7.38 3.5 6 3.5ZM1 6.5H2C2.275 6.5 2.5 6.275 2.5 6C2.5 5.725 2.275 5.5 2 5.5H1C0.725 5.5 0.5 5.725 0.5 6C0.5 6.275 0.725 6.5 1 6.5ZM10 6.5H11C11.275 6.5 11.5 6.275 11.5 6C11.5 5.725 11.275 5.5 11 5.5H10C9.725 5.5 9.5 5.725 9.5 6C9.5 6.275 9.725 6.5 10 6.5ZM5.5 1V2C5.5 2.275 5.725 2.5 6 2.5C6.275 2.5 6.5 2.275 6.5 2V1C6.5 0.725 6.275 0.5 6 0.5C5.725 0.5 5.5 0.725 5.5 1ZM5.5 10V11C5.5 11.275 5.725 11.5 6 11.5C6.275 11.5 6.5 11.275 6.5 11V10C6.5 9.725 6.275 9.5 6 9.5C5.725 9.5 5.5 9.725 5.5 10ZM2.995 2.29C2.94874 2.24365 2.8938 2.20687 2.83331 2.18178C2.77283 2.15669 2.70798 2.14378 2.6425 2.14378C2.57702 2.14378 2.51217 2.15669 2.45169 2.18178C2.3912 2.20687 2.33626 2.24365 2.29 2.29C2.24365 2.33626 2.20687 2.3912 2.18178 2.45169C2.15669 2.51217 2.14378 2.57702 2.14378 2.6425C2.14378 2.70798 2.15669 2.77283 2.18178 2.83331C2.20687 2.8938 2.24365 2.94874 2.29 2.995L2.82 3.525C3.015 3.72 3.335 3.72 3.525 3.525C3.715 3.33 3.72 3.01 3.525 2.82L2.995 2.29ZM9.18 8.475C9.13374 8.42865 9.0788 8.39187 9.01831 8.36678C8.95783 8.34169 8.89298 8.32878 8.8275 8.32878C8.76202 8.32878 8.69717 8.34169 8.63669 8.36678C8.5762 8.39187 8.52126 8.42865 8.475 8.475C8.42865 8.52126 8.39187 8.5762 8.36678 8.63669C8.34169 8.69717 8.32878 8.76202 8.32878 8.8275C8.32878 8.89298 8.34169 8.95783 8.36678 9.01831C8.39187 9.0788 8.42865 9.13374 8.475 9.18L9.005 9.71C9.2 9.905 9.52 9.905 9.71 9.71C9.75635 9.66374 9.79313 9.6088 9.81822 9.54831C9.84331 9.48783 9.85622 9.42298 9.85622 9.3575C9.85622 9.29202 9.84331 9.22717 9.81822 9.16669C9.79313 9.1062 9.75635 9.05126 9.71 9.005L9.18 8.475ZM9.71 2.995C9.75635 2.94874 9.79313 2.8938 9.81822 2.83331C9.84331 2.77283 9.85622 2.70798 9.85622 2.6425C9.85622 2.57702 9.84331 2.51217 9.81822 2.45169C9.79313 2.3912 9.75635 2.33626 9.71 2.29C9.66374 2.24365 9.6088 2.20687 9.54831 2.18178C9.48783 2.15669 9.42298 2.14378 9.3575 2.14378C9.29202 2.14378 9.22717 2.15669 9.16669 2.18178C9.1062 2.20687 9.05126 2.24365 9.005 2.29L8.475 2.82C8.28 3.015 8.28 3.335 8.475 3.525C8.67 3.715 8.99 3.72 9.18 3.525L9.71 2.995ZM3.525 9.18C3.57135 9.13374 3.60813 9.0788 3.63322 9.01831C3.65831 8.95783 3.67122 8.89298 3.67122 8.8275C3.67122 8.76202 3.65831 8.69717 3.63322 8.63669C3.60813 8.5762 3.57135 8.52126 3.525 8.475C3.47874 8.42865 3.4238 8.39187 3.36331 8.36678C3.30283 8.34169 3.23798 8.32878 3.1725 8.32878C3.10702 8.32878 3.04217 8.34169 2.98169 8.36678C2.9212 8.39187 2.86626 8.42865 2.82 8.475L2.29 9.005C2.095 9.2 2.095 9.52 2.29 9.71C2.485 9.9 2.805 9.905 2.995 9.71L3.525 9.18Z" fill="white"/>
</g>
<defs>
<clipPath id="clip0_937_16">
<rect width="12" height="12" fill="black"/>
</clipPath>
</defs>
</svg>
