<svg width="12" height="12" viewBox="0 0 12 12" fill="none" xmlns="http://www.w3.org/2000/svg">
<path d="M4.5 8C5.3815 8 6.185 7.67 6.8015 7.1305L7.47 8.5305C7.47 8.5305 7.6075 8.6425 7.7965 8.8285C7.99 9.01 8.2445 9.2555 8.4885 9.512L9.1675 10.208L9.4695 10.531L10.53 9.4705L10.207 9.1685L9.511 8.4895C9.27682 8.26519 9.0489 8.03443 8.8275 7.7975C8.6415 7.6085 8.5295 7.471 8.5295 7.471L7.1295 6.8025C7.6902 6.16651 7.99971 5.34786 8 4.5C8 2.5705 6.4295 1 4.5 1C2.5705 1 1 2.5705 1 4.5C1 6.4295 2.5705 8 4.5 8Z" fill="black"/>
</svg>
